<?xml version="1.0" standalone="no"?>
<!DOCTYPE svg PUBLIC "-//W3C//DTD SVG 20010904//EN"
 "http://www.w3.org/TR/2001/REC-SVG-20010904/DTD/svg10.dtd">
<svg version="1.0" xmlns="http://www.w3.org/2000/svg"
 width="150.000000pt" height="150.000000pt" viewBox="0 0 150.000000 150.000000"
 preserveAspectRatio="xMidYMid meet">
<metadata>
Created by potrace 1.11, written by Peter Selinger 2001-2013
</metadata>
<g transform="translate(0.000000,150.000000) scale(0.100000,-0.100000)"
fill="#000000" stroke="none">
<path d="M660 1424 c-101 -26 -199 -82 -270 -154 -78 -77 -112 -132 -147 -233
-35 -99 -37 -250 -6 -352 68 -218 255 -379 479 -411 57 -8 166 -8 195 1 25 8
24 -3 -6 -63 -29 -58 -31 -82 -10 -122 15 -28 71 -67 82 -57 2 3 -11 13 -30
22 -35 16 -57 50 -57 86 0 11 12 43 26 71 46 92 80 198 90 285 6 47 4 53 -19
68 -14 9 -38 17 -53 18 -25 2 -32 -5 -61 -58 -35 -64 -40 -65 -22 -5 7 21 9
50 5 64 -11 43 -38 32 -80 -34 -40 -62 -60 -76 -31 -21 8 17 12 31 8 31 -5 0
-21 -32 -37 -70 -17 -42 -34 -70 -43 -70 -8 0 -46 16 -84 36 -106 56 -167 129
-224 269 -11 28 -18 36 -24 26 -17 -26 22 -134 78 -221 54 -82 56 -87 30 -60
-107 113 -155 218 -164 357 -18 293 214 538 510 537 50 -1 105 -2 123 -4 18
-2 38 2 43 7 14 14 3 49 -19 58 -35 15 -226 14 -282 -1z m187 -841 c3 -9 1
-37 -6 -62 -7 -25 -14 -50 -15 -56 -2 -5 -8 -23 -14 -38 -11 -26 -15 -27 -57
-23 -26 2 -48 6 -51 9 -6 5 14 48 26 57 3 3 25 33 49 68 43 64 57 74 68 45z
m112 -14 c33 -12 45 -37 37 -79 -2 -14 -5 -30 -5 -37 -1 -13 -74 -39 -135 -49
-35 -5 -38 -4 -31 13 4 10 8 26 9 35 0 9 4 15 7 12 4 -2 22 23 40 56 17 33 35
60 39 60 4 0 21 -5 39 -11z"/>
<path d="M638 1235 c-40 -22 -57 -63 -62 -147 -2 -40 -7 -82 -10 -93 -4 -11 3
0 14 25 12 24 32 59 46 77 13 17 24 38 24 47 0 22 27 45 49 39 10 -2 34 3 52
13 19 10 50 21 69 25 35 8 35 8 -6 5 -22 -2 -49 1 -59 7 -31 17 -88 18 -117 2z"/>
<path d="M864 1221 c5 -7 -1 -11 -15 -11 -13 0 -38 -17 -61 -40 l-38 -41 0
-92 c0 -77 -4 -101 -25 -145 -32 -68 -32 -95 -1 -112 30 -16 56 -7 57 20 3 39
4 43 16 47 16 6 23 -10 29 -68 6 -60 17 -84 44 -99 47 -25 65 25 35 97 -8 20
-14 38 -11 40 5 6 37 -77 43 -112 11 -65 63 -122 98 -108 13 4 15 14 10 42
-12 63 -113 241 -137 241 -4 0 -8 6 -8 13 0 16 64 -54 97 -107 14 -22 39 -74
54 -116 33 -88 39 -82 8 8 -28 83 -81 161 -179 261 -45 46 -88 98 -96 115 -7
17 -13 24 -14 16 0 -20 23 -55 69 -102 19 -21 31 -38 25 -38 -10 0 -71 69 -91
104 -18 31 -15 77 7 113 23 39 51 55 101 57 40 1 40 9 0 21 -16 5 -21 4 -17
-4z m32 -318 c-7 -7 -26 7 -26 19 0 6 6 6 15 -2 9 -7 13 -15 11 -17z"/>
<path d="M1233 1203 c-21 -8 -15 -40 16 -96 118 -212 74 -482 -104 -637 -25
-22 -25 -20 7 20 53 67 92 152 104 228 8 48 -11 39 -31 -15 -23 -63 -70 -137
-106 -167 l-29 -24 7 -184 c5 -174 5 -185 -16 -226 -14 -27 -30 -44 -46 -48
-14 -3 -25 -10 -25 -15 0 -22 62 25 80 61 16 32 20 59 20 147 0 108 0 109 28
125 84 50 188 194 225 313 30 98 29 253 -2 345 -35 102 -91 190 -114 179 -1 0
-8 -3 -14 -6z"/>
<path d="M776 1115 c-9 -26 -7 -32 5 -12 6 10 9 21 6 23 -2 3 -7 -2 -11 -11z"/>
<path d="M557 963 c-4 -3 -7 -18 -6 -32 1 -26 1 -25 10 3 9 31 7 41 -4 29z"/>
<path d="M551 875 c-2 -70 87 -192 172 -236 51 -27 47 -17 -6 14 -79 47 -140
129 -157 210 -7 35 -8 37 -9 12z"/>
<path d="M762 590 c0 -14 2 -19 5 -12 2 6 2 18 0 25 -3 6 -5 1 -5 -13z"/>
<path d="M1065 581 c-3 -5 -1 -12 3 -15 5 -3 7 -17 4 -31 -4 -25 -5 -25 -23
-9 -19 17 -19 17 -4 -19 8 -20 15 -47 15 -59 1 -48 19 8 24 75 5 61 -2 84 -19
58z"/>
<path d="M930 203 c-13 -26 -22 -59 -21 -72 1 -28 27 -61 48 -61 9 0 7 6 -7
20 -24 24 -25 53 -5 110 21 60 11 62 -15 3z"/>
</g>
</svg>
