<svg id="Layer_1" data-name="Layer 1" xmlns="http://www.w3.org/2000/svg" viewBox="0 0 303 108"><defs><style>.cls-1{fill:#fff;}.cls-2{fill:#00a1b0;}</style></defs><title>bitfusion-logo</title><path class="cls-1" d="M32.57,68v2.75a1.42,1.42,0,0,1-1.47,1.47H28.41a1.42,1.42,0,0,1-1.47-1.47V28.28a1.4,1.4,0,0,1,.42-1.09,1.5,1.5,0,0,1,1.06-.38h2.88a1.42,1.42,0,0,1,1.47,1.47V43.07q3.58-4.74,10.37-4.74t10.08,4.38a18.44,18.44,0,0,1,3.55,11q.06.7.06,1.92t-.06,1.92a18.44,18.44,0,0,1-3.55,11q-3.36,4.39-10.08,4.38Q36.22,72.89,32.57,68Zm16.06-3a13.45,13.45,0,0,0,2.3-7.55q.06-.64.06-1.86,0-12.29-9.09-12.29a8.16,8.16,0,0,0-6.69,2.85,10.9,10.9,0,0,0-2.46,6.75q-.06.71-.06,2.5t.06,2.43a12,12,0,0,0,2.4,7.07,8,8,0,0,0,6.75,3Q46.52,67.9,48.64,65Z"/><path class="cls-1" d="M64.31,71.84a1.43,1.43,0,0,1-.42-1.06V40.44A1.42,1.42,0,0,1,65.36,39h2.82a1.42,1.42,0,0,1,1.47,1.47V70.78a1.42,1.42,0,0,1-1.47,1.47H65.36A1.43,1.43,0,0,1,64.31,71.84Z"/><path class="cls-1" d="M83.13,61.05V43.9H78.08a1.32,1.32,0,0,1-1.41-1.41v-2a1.5,1.5,0,0,1,.38-1.06,1.32,1.32,0,0,1,1-.42h5.06V28.28a1.5,1.5,0,0,1,.38-1.06,1.32,1.32,0,0,1,1-.42h2.82a1.42,1.42,0,0,1,1.47,1.47V39h7.94a1.42,1.42,0,0,1,1.47,1.47v2a1.33,1.33,0,0,1-.42,1,1.5,1.5,0,0,1-1.06.38H88.83V60.6a9.3,9.3,0,0,0,1.06,4.93A3.94,3.94,0,0,0,93.5,67.2h3.9a1.33,1.33,0,0,1,1,.42,1.5,1.5,0,0,1,.38,1.06v2.11a1.49,1.49,0,0,1-.38,1.06,1.33,1.33,0,0,1-1,.42H93.05Q83.13,72.25,83.13,61.05Z"/><path class="cls-1" d="M109.83,71.84a1.43,1.43,0,0,1-.42-1.06V43.9h-5.5a1.5,1.5,0,0,1-1.06-.38,1.33,1.33,0,0,1-.42-1v-2A1.42,1.42,0,0,1,103.91,39h5.5v-3.2q0-5.18,2.53-8t8.29-2.85H124a1.42,1.42,0,0,1,1.47,1.47v2a1.33,1.33,0,0,1-.42,1,1.5,1.5,0,0,1-1.06.38h-3.65q-2.94,0-4.1,1.54a7.89,7.89,0,0,0-1.15,4.74V39h8.26a1.42,1.42,0,0,1,1.47,1.47v2a1.33,1.33,0,0,1-.42,1,1.5,1.5,0,0,1-1.06.38h-8.26V70.78a1.42,1.42,0,0,1-1.47,1.47h-2.75A1.43,1.43,0,0,1,109.83,71.84Z"/><path class="cls-1" d="M132.54,69q-3.33-3.94-3.33-10.46v-18A1.42,1.42,0,0,1,130.68,39h2.94a1.42,1.42,0,0,1,1.47,1.47V58.17q0,9.73,8.45,9.73a8.43,8.43,0,0,0,6.5-2.59,10.1,10.1,0,0,0,2.4-7.14V40.44A1.42,1.42,0,0,1,153.91,39h2.94a1.42,1.42,0,0,1,1.47,1.47V70.78a1.42,1.42,0,0,1-1.47,1.47h-2.75a1.42,1.42,0,0,1-1.47-1.47V67.9a12.26,12.26,0,0,1-4.35,3.74,14.13,14.13,0,0,1-6.34,1.25Q135.86,72.89,132.54,69Z"/><path class="cls-1" d="M171.87,71.45a12.41,12.41,0,0,1-4.51-3.3,5.48,5.48,0,0,1-1.47-3.07,1.19,1.19,0,0,1,.45-1,1.53,1.53,0,0,1,1-.35H170a1.23,1.23,0,0,1,.61.13,2.8,2.8,0,0,1,.61.58,11.62,11.62,0,0,0,3.3,2.82,10,10,0,0,0,4.9,1A10.46,10.46,0,0,0,184.92,67,4.1,4.1,0,0,0,187,63.29a3.6,3.6,0,0,0-.9-2.56,7.76,7.76,0,0,0-3-1.73A50.15,50.15,0,0,0,177,57.34q-5.57-1.21-7.87-3.52a8.05,8.05,0,0,1-2.3-6,8.39,8.39,0,0,1,1.41-4.58,10.13,10.13,0,0,1,4.19-3.58A14.81,14.81,0,0,1,179,38.33a16,16,0,0,1,6.88,1.34,11.91,11.91,0,0,1,4.29,3.14,5.28,5.28,0,0,1,1.44,3,1.26,1.26,0,0,1-.42,1,1.42,1.42,0,0,1-1,.38h-2.43a1.34,1.34,0,0,1-1.28-.7q-1.09-1.21-1.82-1.89a6.09,6.09,0,0,0-2.14-1.15,11.07,11.07,0,0,0-3.52-.48,7.61,7.61,0,0,0-4.8,1.31,4.22,4.22,0,0,0-1.66,3.49,3.64,3.64,0,0,0,.7,2.27,6.32,6.32,0,0,0,2.69,1.73,37.67,37.67,0,0,0,5.89,1.63q6.08,1.28,8.61,3.65A8,8,0,0,1,193,63.1a8.5,8.5,0,0,1-1.57,5,10.3,10.3,0,0,1-4.67,3.52,19.36,19.36,0,0,1-7.39,1.28A17.34,17.34,0,0,1,171.87,71.45Z"/><path class="cls-1" d="M200.86,71.84a1.43,1.43,0,0,1-.42-1.06V40.44A1.42,1.42,0,0,1,201.91,39h2.82a1.42,1.42,0,0,1,1.47,1.47V70.78a1.42,1.42,0,0,1-1.47,1.47h-2.82A1.43,1.43,0,0,1,200.86,71.84Z"/><path class="cls-1" d="M218.46,68.92q-3.81-4-4.06-10.56l-.06-2.75.06-2.75a15.37,15.37,0,0,1,4.13-10.56q3.87-4,10.78-4t10.78,4a15.38,15.38,0,0,1,4.13,10.56q.13,1.41.13,2.75t-.13,2.75Q244,65,240.15,68.92t-10.85,4Q222.26,72.89,218.46,68.92ZM235.8,65.5q2.4-2.59,2.59-7.46.06-.64.06-2.43t-.06-2.43q-.19-4.86-2.59-7.46a9.43,9.43,0,0,0-13,0q-2.4,2.59-2.59,7.46l-.06,2.43.06,2.43q.19,4.86,2.59,7.46a9.44,9.44,0,0,0,13,0Z"/><path class="cls-1" d="M250.82,71.84a1.43,1.43,0,0,1-.42-1.06V40.44A1.42,1.42,0,0,1,251.88,39h2.75a1.34,1.34,0,0,1,1.47,1.47v2.82a13.65,13.65,0,0,1,4.45-3.65,13.87,13.87,0,0,1,6.3-1.28q6.15,0,9.54,3.94t3.39,10.4V70.78a1.42,1.42,0,0,1-1.47,1.47h-2.94a1.42,1.42,0,0,1-1.47-1.47V53.05q0-4.61-2.24-7.17a8.05,8.05,0,0,0-6.4-2.56,8.52,8.52,0,0,0-6.53,2.59,10,10,0,0,0-2.43,7.14V70.78a1.42,1.42,0,0,1-1.47,1.47h-2.94A1.43,1.43,0,0,1,250.82,71.84Z"/><path class="cls-2" d="M27,79.15A1.43,1.43,0,0,1,28,78.73H55.72A1.42,1.42,0,0,1,57.2,80.2V83a1.42,1.42,0,0,1-1.47,1.47H28A1.42,1.42,0,0,1,26.57,83V80.2A1.43,1.43,0,0,1,27,79.15Z"/><path class="cls-2" d="M63.8,32.28a1.43,1.43,0,0,1-.42-1.06V27.9a1.54,1.54,0,0,1,.42-1.09,1.38,1.38,0,0,1,1.06-.45h3.78a1.53,1.53,0,0,1,1.54,1.54v3.33a1.38,1.38,0,0,1-.45,1.06,1.54,1.54,0,0,1-1.09.42H64.85A1.43,1.43,0,0,1,63.8,32.28Z"/><path class="cls-2" d="M200.34,32.28a1.43,1.43,0,0,1-.42-1.06V27.9a1.54,1.54,0,0,1,.42-1.09,1.38,1.38,0,0,1,1.06-.45h3.78a1.53,1.53,0,0,1,1.54,1.54v3.33a1.38,1.38,0,0,1-.45,1.06,1.54,1.54,0,0,1-1.09.42H201.4A1.43,1.43,0,0,1,200.34,32.28Z"/></svg>